<svg xmlns="http://www.w3.org/2000/svg" width="18" height="18" fill="none" viewBox="0 0 18 18">
  <rect width="18" height="18" fill="#8086F9" fill-opacity=".85" rx="5"/>
  <rect width="16" height="16" x="1" y="1" stroke="#000" stroke-opacity=".1" stroke-width="2" rx="4"/>
  <path fill="#fff" fill-opacity=".85" d="M7.93 13.633c.322 0 .595-.156.79-.46l4.464-7.02c.117-.196.234-.41.234-.626 0-.44-.39-.722-.791-.722-.254 0-.498.156-.684.44l-4.052 6.503-1.924-2.49c-.235-.313-.45-.39-.713-.39a.759.759 0 0 0-.762.77c0 .216.088.42.225.606l2.383 2.93c.244.322.507.459.83.459Z"/>
  <path fill="#fff" fill-opacity=".85" d="M7.93 13.633c.322 0 .595-.156.79-.46l4.464-7.02c.117-.196.234-.41.234-.626 0-.44-.39-.722-.791-.722-.254 0-.498.156-.684.44l-4.052 6.503-1.924-2.49c-.235-.313-.45-.39-.713-.39a.759.759 0 0 0-.762.77c0 .216.088.42.225.606l2.383 2.93c.244.322.507.459.83.459Z"/>
</svg>
