<svg xmlns="http://www.w3.org/2000/svg" width="22" height="22" fill="none" viewBox="0 0 22 22">
  <rect width="22" height="22" fill="#8086F9" fill-opacity=".85" rx="5"/>
  <rect width="20" height="20" x="1" y="1" stroke="#000" stroke-opacity=".1" stroke-width="2" rx="4"/>
  <path fill="#fff" fill-opacity=".85" d="M9.692 16.662c.393 0 .728-.19.966-.56l5.455-8.582c.143-.24.287-.502.287-.764 0-.537-.478-.884-.967-.884-.31 0-.609.191-.836.537l-4.953 7.95-2.351-3.044c-.287-.382-.55-.477-.872-.477a.927.927 0 0 0-.93.943c0 .262.107.513.274.74l2.912 3.58c.298.394.62.561 1.015.561Z"/>
  <path fill="#fff" fill-opacity=".85" d="M9.692 16.662c.393 0 .728-.19.966-.56l5.455-8.582c.143-.24.287-.502.287-.764 0-.537-.478-.884-.967-.884-.31 0-.609.191-.836.537l-4.953 7.95-2.351-3.044c-.287-.382-.55-.477-.872-.477a.927.927 0 0 0-.93.943c0 .262.107.513.274.74l2.912 3.58c.298.394.62.561 1.015.561Z"/>
</svg>
