<svg xmlns="http://www.w3.org/2000/svg" width="17" height="22" fill="none" viewBox="0 0 17 22">
  <g clip-path="url(#a)">
    <path fill="#000" fill-opacity=".75" d="M0 11.657a8.108 8.108 0 0 0 8.127 8.137 8.1 8.1 0 0 0 8.118-8.137c0-.44-.313-.763-.763-.763-.432 0-.717.322-.717.763a6.621 6.621 0 0 1-6.638 6.656 6.629 6.629 0 0 1-6.647-6.656A6.62 6.62 0 0 1 8.127 5.02c.699 0 1.352.055 1.894.184l-2.749 2.72a.76.76 0 0 0-.211.525c0 .423.312.735.726.735.23 0 .404-.073.533-.211l3.788-3.806a.717.717 0 0 0 .23-.552.787.787 0 0 0-.23-.551L8.32.22A.68.68 0 0 0 7.787 0c-.414 0-.726.331-.726.754 0 .193.073.377.202.524l2.445 2.418a8.457 8.457 0 0 0-1.58-.157A8.098 8.098 0 0 0 0 11.658Z"/>
  </g>
  <defs>
    <clipPath id="a">
      <path fill="#fff" d="M0 0h16.245v22H0z"/>
    </clipPath>
  </defs>
</svg>
