<?xml version="1.0" encoding="UTF-8"?>
<!-- Generated by Pixelmator Pro 2.4.3 -->
<svg width="12" height="8" viewBox="0 0 12 8" xmlns="http://www.w3.org/2000/svg" xmlns:xlink="http://www.w3.org/1999/xlink">
    <g id="Group">
        <path id="Path" fill="#000000" stroke="none" opacity="0" d="M -0 0.151983 L 12 0.151983 L 12 8 L -0 8 Z"/>
        <path id="path1" fill="#000000" stroke="none" d="M 6.003452 8 C 6.176163 8 6.348875 7.926277 6.466314 7.786301 L 11.813452 1.942658 C 11.930884 1.817382 12 1.655266 12 1.471041 C 12 1.087846 11.730542 0.793088 11.37131 0.793088 C 11.198627 0.793088 11.03974 0.866779 10.922307 0.984686 L 5.630391 6.754628 L 6.369602 6.754628 L 1.077721 0.984686 C 0.967186 0.866779 0.808291 0.793088 0.62867 0.793088 C 0.26943 0.793088 -0 1.087846 -0 1.471041 C -0 1.655266 0.069085 1.817382 0.186528 1.950024 L 5.533679 7.786301 C 5.664934 7.926277 5.82383 8 6.003452 8 Z"/>
    </g>
</svg>
