<svg xmlns="http://www.w3.org/2000/svg" width="24" height="24" fill="none" viewBox="0 0 24 24">
  <path fill="#8086F9" d="M12 23.988c6.565 0 12-5.444 12-11.994C24 5.433 18.553 0 11.988 0 5.435 0 0 5.433 0 11.994c0 6.55 5.447 11.994 12 11.994Zm0-1.999a9.95 9.95 0 0 1-9.988-9.995C2.012 6.444 6.435 2 11.988 2A9.97 9.97 0 0 1 22 11.994a9.96 9.96 0 0 1-10 9.995ZM9.2 18.32h6.141c1.306 0 1.953-.67 1.953-1.987v-5.056h-4.659c-.812 0-1.2-.376-1.2-1.188V5.35H9.2c-1.294 0-1.953.67-1.953 1.988v8.995c0 1.329.659 1.987 1.953 1.987Zm3.53-7.996h4.494c-.036-.258-.224-.517-.53-.823L13.212 5.95c-.294-.306-.565-.494-.824-.53v4.563c0 .224.118.341.341.341Z"/>
</svg>
