<svg xmlns="http://www.w3.org/2000/svg" width="17" height="22" fill="none" viewBox="0 0 17 22">
  <g clip-path="url(#a)">
    <path fill="#000" fill-opacity=".75" d="M2.872 20.646h10.493c1.912 0 2.872-.951 2.872-2.836V8.681c0-1.884-.96-2.836-2.872-2.836h-2.553v1.473h2.525c.906 0 1.427.494 1.427 1.445v8.965c0 .951-.521 1.445-1.427 1.445H2.891c-.915 0-1.418-.494-1.418-1.445V8.763c0-.95.503-1.445 1.418-1.445h2.534V5.845H2.872C.961 5.845 0 6.797 0 8.681v9.13c0 1.884.96 2.835 2.872 2.835Zm5.242-7.162c.393 0 .732-.33.732-.714V3.375L8.79 2.003l.613.65 1.39 1.482c.128.146.311.22.494.22.375 0 .668-.275.668-.65 0-.192-.082-.339-.22-.476L8.645.247C8.462.064 8.306 0 8.114 0c-.183 0-.339.064-.53.247L4.49 3.229a.638.638 0 0 0-.21.476c0 .375.275.65.659.65a.687.687 0 0 0 .503-.22l1.381-1.482.622-.65-.055 1.372v9.395c0 .384.33.714.723.714Z"/>
  </g>
  <defs>
    <clipPath id="a">
      <path fill="#fff" d="M0 0h16.237v22H0z"/>
    </clipPath>
  </defs>
</svg>
