<svg xmlns="http://www.w3.org/2000/svg" width="30" height="30" fill="none" viewBox="0 0 30 30">
  <path fill="#8086F9" fill-opacity=".85" d="M15 29.985c8.206 0 15-6.805 15-14.992C30 6.79 23.191 0 14.985 0 6.795 0 0 6.79 0 14.993c0 8.187 6.809 14.992 15 14.992Zm0-2.498A12.437 12.437 0 0 1 2.515 14.993c0-6.938 5.53-12.494 12.47-12.494A12.462 12.462 0 0 1 27.5 14.993 12.45 12.45 0 0 1 15 27.487Zm-4.162-5.35h8.324c1.603 0 2.44-.824 2.44-2.411v-7.247c0-1.587-.837-2.396-2.44-2.396h-2.177v1.485h2.162c.647 0 .97.323.97.985v7.129c0 .646-.323.984-.97.984h-8.294c-.647 0-.97-.323-.97-.984v-7.13c0-.66.323-.984.97-.984h2.176v-1.485h-2.19c-1.589 0-2.427.823-2.442 2.396v7.247c.015 1.572.853 2.41 2.441 2.41Zm4.147-5.777c.412 0 .736-.309.736-.706V8.217l-.03-.691.647.69.662.691c.118.133.294.206.515.206.397 0 .676-.264.676-.647a.602.602 0 0 0-.22-.485l-2.456-2.38c-.177-.177-.353-.25-.53-.25-.176 0-.353.088-.514.25L12 7.966a.654.654 0 0 0-.206.5c0 .382.28.646.662.646a.686.686 0 0 0 .515-.206l.661-.69.662-.691-.03.69v7.438a.71.71 0 0 0 .721.706Z"/>
</svg>
